<mxfile host="app.diagrams.net" modified="2020-07-24T08:50:00.310Z" agent="5.0 (Macintosh; Intel Mac OS X 10_15_5) AppleWebKit/537.36 (KHTML, like Gecko) Chrome/83.0.4103.116 Safari/537.36" etag="q_IXU3LTYcqtayJxlqB1" version="13.5.1" type="github">
  <diagram id="ITNs_ZCx-iCw0SleMVfe" name="Page-1">
    <mxGraphModel dx="2066" dy="1105" grid="1" gridSize="10" guides="1" tooltips="1" connect="1" arrows="1" fold="1" page="1" pageScale="1" pageWidth="827" pageHeight="1169" math="0" shadow="0">
      <root>
        <mxCell id="0" />
        <mxCell id="1" parent="0" />
        <mxCell id="ayNgYDYhqUhjOZifAOX6-2" value="" style="shape=table;html=1;whiteSpace=wrap;startSize=0;container=1;collapsible=0;childLayout=tableLayout;" vertex="1" parent="1">
          <mxGeometry x="190" y="220" width="340" height="200" as="geometry" />
        </mxCell>
        <mxCell id="ayNgYDYhqUhjOZifAOX6-3" value="" style="shape=partialRectangle;html=1;whiteSpace=wrap;collapsible=0;dropTarget=0;pointerEvents=0;fillColor=none;top=0;left=0;bottom=0;right=0;points=[[0,0.5],[1,0.5]];portConstraint=eastwest;" vertex="1" parent="ayNgYDYhqUhjOZifAOX6-2">
          <mxGeometry width="340" height="40" as="geometry" />
        </mxCell>
        <mxCell id="ayNgYDYhqUhjOZifAOX6-4" value="Process" style="shape=partialRectangle;html=1;whiteSpace=wrap;connectable=0;overflow=hidden;fillColor=none;top=0;left=0;bottom=0;right=0;" vertex="1" parent="ayNgYDYhqUhjOZifAOX6-3">
          <mxGeometry width="113" height="40" as="geometry" />
        </mxCell>
        <mxCell id="ayNgYDYhqUhjOZifAOX6-5" value="Arrival Time" style="shape=partialRectangle;html=1;whiteSpace=wrap;connectable=0;overflow=hidden;fillColor=none;top=0;left=0;bottom=0;right=0;" vertex="1" parent="ayNgYDYhqUhjOZifAOX6-3">
          <mxGeometry x="113" width="114" height="40" as="geometry" />
        </mxCell>
        <mxCell id="ayNgYDYhqUhjOZifAOX6-6" value="Burst&lt;br&gt;Time" style="shape=partialRectangle;html=1;whiteSpace=wrap;connectable=0;overflow=hidden;fillColor=none;top=0;left=0;bottom=0;right=0;" vertex="1" parent="ayNgYDYhqUhjOZifAOX6-3">
          <mxGeometry x="227" width="113" height="40" as="geometry" />
        </mxCell>
        <mxCell id="ayNgYDYhqUhjOZifAOX6-7" value="" style="shape=partialRectangle;html=1;whiteSpace=wrap;collapsible=0;dropTarget=0;pointerEvents=0;fillColor=none;top=0;left=0;bottom=0;right=0;points=[[0,0.5],[1,0.5]];portConstraint=eastwest;" vertex="1" parent="ayNgYDYhqUhjOZifAOX6-2">
          <mxGeometry y="40" width="340" height="40" as="geometry" />
        </mxCell>
        <mxCell id="ayNgYDYhqUhjOZifAOX6-8" value="P1" style="shape=partialRectangle;html=1;whiteSpace=wrap;connectable=0;overflow=hidden;fillColor=#fff2cc;top=0;left=0;bottom=0;right=0;strokeColor=#d6b656;" vertex="1" parent="ayNgYDYhqUhjOZifAOX6-7">
          <mxGeometry width="113" height="40" as="geometry" />
        </mxCell>
        <mxCell id="ayNgYDYhqUhjOZifAOX6-9" value="0" style="shape=partialRectangle;html=1;whiteSpace=wrap;connectable=0;overflow=hidden;fillColor=#fff2cc;top=0;left=0;bottom=0;right=0;strokeColor=#d6b656;" vertex="1" parent="ayNgYDYhqUhjOZifAOX6-7">
          <mxGeometry x="113" width="114" height="40" as="geometry" />
        </mxCell>
        <mxCell id="ayNgYDYhqUhjOZifAOX6-10" value="5" style="shape=partialRectangle;html=1;whiteSpace=wrap;connectable=0;overflow=hidden;fillColor=#fff2cc;top=0;left=0;bottom=0;right=0;strokeColor=#d6b656;" vertex="1" parent="ayNgYDYhqUhjOZifAOX6-7">
          <mxGeometry x="227" width="113" height="40" as="geometry" />
        </mxCell>
        <mxCell id="ayNgYDYhqUhjOZifAOX6-11" value="" style="shape=partialRectangle;html=1;whiteSpace=wrap;collapsible=0;dropTarget=0;pointerEvents=0;fillColor=none;top=0;left=0;bottom=0;right=0;points=[[0,0.5],[1,0.5]];portConstraint=eastwest;" vertex="1" parent="ayNgYDYhqUhjOZifAOX6-2">
          <mxGeometry y="80" width="340" height="40" as="geometry" />
        </mxCell>
        <mxCell id="ayNgYDYhqUhjOZifAOX6-12" value="P2" style="shape=partialRectangle;html=1;whiteSpace=wrap;connectable=0;overflow=hidden;fillColor=#f8cecc;top=0;left=0;bottom=0;right=0;strokeColor=#b85450;" vertex="1" parent="ayNgYDYhqUhjOZifAOX6-11">
          <mxGeometry width="113" height="40" as="geometry" />
        </mxCell>
        <mxCell id="ayNgYDYhqUhjOZifAOX6-13" value="0" style="shape=partialRectangle;html=1;whiteSpace=wrap;connectable=0;overflow=hidden;fillColor=#f8cecc;top=0;left=0;bottom=0;right=0;strokeColor=#b85450;" vertex="1" parent="ayNgYDYhqUhjOZifAOX6-11">
          <mxGeometry x="113" width="114" height="40" as="geometry" />
        </mxCell>
        <mxCell id="ayNgYDYhqUhjOZifAOX6-14" value="4" style="shape=partialRectangle;html=1;whiteSpace=wrap;connectable=0;overflow=hidden;fillColor=#f8cecc;top=0;left=0;bottom=0;right=0;strokeColor=#b85450;" vertex="1" parent="ayNgYDYhqUhjOZifAOX6-11">
          <mxGeometry x="227" width="113" height="40" as="geometry" />
        </mxCell>
        <mxCell id="ayNgYDYhqUhjOZifAOX6-15" value="" style="shape=partialRectangle;html=1;whiteSpace=wrap;collapsible=0;dropTarget=0;pointerEvents=0;fillColor=none;top=0;left=0;bottom=0;right=0;points=[[0,0.5],[1,0.5]];portConstraint=eastwest;" vertex="1" parent="ayNgYDYhqUhjOZifAOX6-2">
          <mxGeometry y="120" width="340" height="40" as="geometry" />
        </mxCell>
        <mxCell id="ayNgYDYhqUhjOZifAOX6-16" value="P3" style="shape=partialRectangle;html=1;whiteSpace=wrap;connectable=0;overflow=hidden;fillColor=#e1d5e7;top=0;left=0;bottom=0;right=0;strokeColor=#9673a6;" vertex="1" parent="ayNgYDYhqUhjOZifAOX6-15">
          <mxGeometry width="113" height="40" as="geometry" />
        </mxCell>
        <mxCell id="ayNgYDYhqUhjOZifAOX6-17" value="0" style="shape=partialRectangle;html=1;whiteSpace=wrap;connectable=0;overflow=hidden;fillColor=#e1d5e7;top=0;left=0;bottom=0;right=0;strokeColor=#9673a6;" vertex="1" parent="ayNgYDYhqUhjOZifAOX6-15">
          <mxGeometry x="113" width="114" height="40" as="geometry" />
        </mxCell>
        <mxCell id="ayNgYDYhqUhjOZifAOX6-18" value="2" style="shape=partialRectangle;html=1;whiteSpace=wrap;connectable=0;overflow=hidden;fillColor=#e1d5e7;top=0;left=0;bottom=0;right=0;strokeColor=#9673a6;" vertex="1" parent="ayNgYDYhqUhjOZifAOX6-15">
          <mxGeometry x="227" width="113" height="40" as="geometry" />
        </mxCell>
        <mxCell id="ayNgYDYhqUhjOZifAOX6-19" value="" style="shape=partialRectangle;html=1;whiteSpace=wrap;collapsible=0;dropTarget=0;pointerEvents=0;fillColor=none;top=0;left=0;bottom=0;right=0;points=[[0,0.5],[1,0.5]];portConstraint=eastwest;" vertex="1" parent="ayNgYDYhqUhjOZifAOX6-2">
          <mxGeometry y="160" width="340" height="40" as="geometry" />
        </mxCell>
        <mxCell id="ayNgYDYhqUhjOZifAOX6-20" value="P4" style="shape=partialRectangle;html=1;whiteSpace=wrap;connectable=0;overflow=hidden;fillColor=#dae8fc;top=0;left=0;bottom=0;right=0;strokeColor=#6c8ebf;" vertex="1" parent="ayNgYDYhqUhjOZifAOX6-19">
          <mxGeometry width="113" height="40" as="geometry" />
        </mxCell>
        <mxCell id="ayNgYDYhqUhjOZifAOX6-21" value="0" style="shape=partialRectangle;html=1;whiteSpace=wrap;connectable=0;overflow=hidden;fillColor=#dae8fc;top=0;left=0;bottom=0;right=0;strokeColor=#6c8ebf;" vertex="1" parent="ayNgYDYhqUhjOZifAOX6-19">
          <mxGeometry x="113" width="114" height="40" as="geometry" />
        </mxCell>
        <mxCell id="ayNgYDYhqUhjOZifAOX6-22" value="3" style="shape=partialRectangle;html=1;whiteSpace=wrap;connectable=0;overflow=hidden;fillColor=#dae8fc;top=0;left=0;bottom=0;right=0;strokeColor=#6c8ebf;" vertex="1" parent="ayNgYDYhqUhjOZifAOX6-19">
          <mxGeometry x="227" width="113" height="40" as="geometry" />
        </mxCell>
        <mxCell id="ayNgYDYhqUhjOZifAOX6-50" value="" style="shape=table;html=1;whiteSpace=wrap;startSize=0;container=1;collapsible=0;childLayout=tableLayout;" vertex="1" parent="1">
          <mxGeometry x="190" y="480" width="470" height="80" as="geometry" />
        </mxCell>
        <mxCell id="ayNgYDYhqUhjOZifAOX6-51" value="" style="shape=partialRectangle;html=1;whiteSpace=wrap;collapsible=0;dropTarget=0;pointerEvents=0;fillColor=none;top=0;left=0;bottom=0;right=0;points=[[0,0.5],[1,0.5]];portConstraint=eastwest;" vertex="1" parent="ayNgYDYhqUhjOZifAOX6-50">
          <mxGeometry width="470" height="40" as="geometry" />
        </mxCell>
        <mxCell id="ayNgYDYhqUhjOZifAOX6-52" value="" style="shape=partialRectangle;html=1;whiteSpace=wrap;connectable=0;overflow=hidden;fillColor=#fff2cc;top=0;left=0;bottom=0;right=0;strokeColor=#d6b656;" vertex="1" parent="ayNgYDYhqUhjOZifAOX6-51">
          <mxGeometry width="33" height="40" as="geometry" />
        </mxCell>
        <mxCell id="ayNgYDYhqUhjOZifAOX6-53" value="" style="shape=partialRectangle;html=1;whiteSpace=wrap;connectable=0;overflow=hidden;fillColor=#fff2cc;top=0;left=0;bottom=0;right=0;strokeColor=#d6b656;" vertex="1" parent="ayNgYDYhqUhjOZifAOX6-51">
          <mxGeometry x="33" width="34" height="40" as="geometry" />
        </mxCell>
        <mxCell id="ayNgYDYhqUhjOZifAOX6-54" value="" style="shape=partialRectangle;html=1;whiteSpace=wrap;connectable=0;overflow=hidden;fillColor=#f8cecc;top=0;left=0;bottom=0;right=0;strokeColor=#b85450;" vertex="1" parent="ayNgYDYhqUhjOZifAOX6-51">
          <mxGeometry x="67" width="34" height="40" as="geometry" />
        </mxCell>
        <mxCell id="ayNgYDYhqUhjOZifAOX6-55" value="" style="shape=partialRectangle;html=1;whiteSpace=wrap;connectable=0;overflow=hidden;fillColor=#f8cecc;top=0;left=0;bottom=0;right=0;strokeColor=#b85450;" vertex="1" parent="ayNgYDYhqUhjOZifAOX6-51">
          <mxGeometry x="101" width="33" height="40" as="geometry" />
        </mxCell>
        <mxCell id="ayNgYDYhqUhjOZifAOX6-56" value="" style="shape=partialRectangle;html=1;whiteSpace=wrap;connectable=0;overflow=hidden;fillColor=#e1d5e7;top=0;left=0;bottom=0;right=0;strokeColor=#9673a6;" vertex="1" parent="ayNgYDYhqUhjOZifAOX6-51">
          <mxGeometry x="134" width="34" height="40" as="geometry" />
        </mxCell>
        <mxCell id="ayNgYDYhqUhjOZifAOX6-57" value="" style="shape=partialRectangle;html=1;whiteSpace=wrap;connectable=0;overflow=hidden;fillColor=#e1d5e7;top=0;left=0;bottom=0;right=0;strokeColor=#9673a6;" vertex="1" parent="ayNgYDYhqUhjOZifAOX6-51">
          <mxGeometry x="168" width="34" height="40" as="geometry" />
        </mxCell>
        <mxCell id="ayNgYDYhqUhjOZifAOX6-58" value="" style="shape=partialRectangle;html=1;whiteSpace=wrap;connectable=0;overflow=hidden;fillColor=#dae8fc;top=0;left=0;bottom=0;right=0;strokeColor=#6c8ebf;" vertex="1" parent="ayNgYDYhqUhjOZifAOX6-51">
          <mxGeometry x="202" width="33" height="40" as="geometry" />
        </mxCell>
        <mxCell id="ayNgYDYhqUhjOZifAOX6-59" value="" style="shape=partialRectangle;html=1;whiteSpace=wrap;connectable=0;overflow=hidden;fillColor=#dae8fc;top=0;left=0;bottom=0;right=0;strokeColor=#6c8ebf;" vertex="1" parent="ayNgYDYhqUhjOZifAOX6-51">
          <mxGeometry x="235" width="33" height="40" as="geometry" />
        </mxCell>
        <mxCell id="ayNgYDYhqUhjOZifAOX6-60" value="" style="shape=partialRectangle;html=1;whiteSpace=wrap;connectable=0;overflow=hidden;fillColor=#fff2cc;top=0;left=0;bottom=0;right=0;strokeColor=#d6b656;" vertex="1" parent="ayNgYDYhqUhjOZifAOX6-51">
          <mxGeometry x="268" width="34" height="40" as="geometry" />
        </mxCell>
        <mxCell id="ayNgYDYhqUhjOZifAOX6-61" value="" style="shape=partialRectangle;html=1;whiteSpace=wrap;connectable=0;overflow=hidden;fillColor=#fff2cc;top=0;left=0;bottom=0;right=0;strokeColor=#d6b656;" vertex="1" parent="ayNgYDYhqUhjOZifAOX6-51">
          <mxGeometry x="302" width="34" height="40" as="geometry" />
        </mxCell>
        <mxCell id="ayNgYDYhqUhjOZifAOX6-62" value="" style="shape=partialRectangle;html=1;whiteSpace=wrap;connectable=0;overflow=hidden;fillColor=#f8cecc;top=0;left=0;bottom=0;right=0;strokeColor=#b85450;" vertex="1" parent="ayNgYDYhqUhjOZifAOX6-51">
          <mxGeometry x="336" width="33" height="40" as="geometry" />
        </mxCell>
        <mxCell id="ayNgYDYhqUhjOZifAOX6-63" value="" style="shape=partialRectangle;html=1;whiteSpace=wrap;connectable=0;overflow=hidden;fillColor=#f8cecc;top=0;left=0;bottom=0;right=0;strokeColor=#b85450;" vertex="1" parent="ayNgYDYhqUhjOZifAOX6-51">
          <mxGeometry x="369" width="34" height="40" as="geometry" />
        </mxCell>
        <mxCell id="ayNgYDYhqUhjOZifAOX6-64" value="" style="shape=partialRectangle;html=1;whiteSpace=wrap;connectable=0;overflow=hidden;fillColor=#dae8fc;top=0;left=0;bottom=0;right=0;strokeColor=#6c8ebf;" vertex="1" parent="ayNgYDYhqUhjOZifAOX6-51">
          <mxGeometry x="403" width="34" height="40" as="geometry" />
        </mxCell>
        <mxCell id="ayNgYDYhqUhjOZifAOX6-65" value="" style="shape=partialRectangle;html=1;whiteSpace=wrap;connectable=0;overflow=hidden;fillColor=#fff2cc;top=0;left=0;bottom=0;right=0;strokeColor=#d6b656;" vertex="1" parent="ayNgYDYhqUhjOZifAOX6-51">
          <mxGeometry x="437" width="33" height="40" as="geometry" />
        </mxCell>
        <mxCell id="ayNgYDYhqUhjOZifAOX6-66" value="" style="shape=partialRectangle;html=1;whiteSpace=wrap;collapsible=0;dropTarget=0;pointerEvents=0;fillColor=none;top=0;left=0;bottom=0;right=0;points=[[0,0.5],[1,0.5]];portConstraint=eastwest;" vertex="1" parent="ayNgYDYhqUhjOZifAOX6-50">
          <mxGeometry y="40" width="470" height="40" as="geometry" />
        </mxCell>
        <mxCell id="ayNgYDYhqUhjOZifAOX6-67" value="P1" style="shape=partialRectangle;html=1;whiteSpace=wrap;connectable=0;overflow=hidden;fillColor=none;top=0;left=0;bottom=0;right=0;" vertex="1" parent="ayNgYDYhqUhjOZifAOX6-66">
          <mxGeometry width="33" height="40" as="geometry" />
        </mxCell>
        <mxCell id="ayNgYDYhqUhjOZifAOX6-68" value="" style="shape=partialRectangle;html=1;whiteSpace=wrap;connectable=0;overflow=hidden;fillColor=none;top=0;left=0;bottom=0;right=0;" vertex="1" parent="ayNgYDYhqUhjOZifAOX6-66">
          <mxGeometry x="33" width="34" height="40" as="geometry" />
        </mxCell>
        <mxCell id="ayNgYDYhqUhjOZifAOX6-69" value="P2" style="shape=partialRectangle;html=1;whiteSpace=wrap;connectable=0;overflow=hidden;fillColor=none;top=0;left=0;bottom=0;right=0;" vertex="1" parent="ayNgYDYhqUhjOZifAOX6-66">
          <mxGeometry x="67" width="34" height="40" as="geometry" />
        </mxCell>
        <mxCell id="ayNgYDYhqUhjOZifAOX6-70" value="" style="shape=partialRectangle;html=1;whiteSpace=wrap;connectable=0;overflow=hidden;fillColor=none;top=0;left=0;bottom=0;right=0;" vertex="1" parent="ayNgYDYhqUhjOZifAOX6-66">
          <mxGeometry x="101" width="33" height="40" as="geometry" />
        </mxCell>
        <mxCell id="ayNgYDYhqUhjOZifAOX6-71" value="P3" style="shape=partialRectangle;html=1;whiteSpace=wrap;connectable=0;overflow=hidden;fillColor=none;top=0;left=0;bottom=0;right=0;" vertex="1" parent="ayNgYDYhqUhjOZifAOX6-66">
          <mxGeometry x="134" width="34" height="40" as="geometry" />
        </mxCell>
        <mxCell id="ayNgYDYhqUhjOZifAOX6-72" value="" style="shape=partialRectangle;html=1;whiteSpace=wrap;connectable=0;overflow=hidden;fillColor=none;top=0;left=0;bottom=0;right=0;" vertex="1" parent="ayNgYDYhqUhjOZifAOX6-66">
          <mxGeometry x="168" width="34" height="40" as="geometry" />
        </mxCell>
        <mxCell id="ayNgYDYhqUhjOZifAOX6-73" value="P4" style="shape=partialRectangle;html=1;whiteSpace=wrap;connectable=0;overflow=hidden;fillColor=none;top=0;left=0;bottom=0;right=0;" vertex="1" parent="ayNgYDYhqUhjOZifAOX6-66">
          <mxGeometry x="202" width="33" height="40" as="geometry" />
        </mxCell>
        <mxCell id="ayNgYDYhqUhjOZifAOX6-74" value="" style="shape=partialRectangle;html=1;whiteSpace=wrap;connectable=0;overflow=hidden;fillColor=none;top=0;left=0;bottom=0;right=0;" vertex="1" parent="ayNgYDYhqUhjOZifAOX6-66">
          <mxGeometry x="235" width="33" height="40" as="geometry" />
        </mxCell>
        <mxCell id="ayNgYDYhqUhjOZifAOX6-75" value="P1" style="shape=partialRectangle;html=1;whiteSpace=wrap;connectable=0;overflow=hidden;fillColor=none;top=0;left=0;bottom=0;right=0;" vertex="1" parent="ayNgYDYhqUhjOZifAOX6-66">
          <mxGeometry x="268" width="34" height="40" as="geometry" />
        </mxCell>
        <mxCell id="ayNgYDYhqUhjOZifAOX6-76" value="" style="shape=partialRectangle;html=1;whiteSpace=wrap;connectable=0;overflow=hidden;fillColor=none;top=0;left=0;bottom=0;right=0;" vertex="1" parent="ayNgYDYhqUhjOZifAOX6-66">
          <mxGeometry x="302" width="34" height="40" as="geometry" />
        </mxCell>
        <mxCell id="ayNgYDYhqUhjOZifAOX6-77" value="P2" style="shape=partialRectangle;html=1;whiteSpace=wrap;connectable=0;overflow=hidden;fillColor=none;top=0;left=0;bottom=0;right=0;" vertex="1" parent="ayNgYDYhqUhjOZifAOX6-66">
          <mxGeometry x="336" width="33" height="40" as="geometry" />
        </mxCell>
        <mxCell id="ayNgYDYhqUhjOZifAOX6-78" value="" style="shape=partialRectangle;html=1;whiteSpace=wrap;connectable=0;overflow=hidden;fillColor=none;top=0;left=0;bottom=0;right=0;" vertex="1" parent="ayNgYDYhqUhjOZifAOX6-66">
          <mxGeometry x="369" width="34" height="40" as="geometry" />
        </mxCell>
        <mxCell id="ayNgYDYhqUhjOZifAOX6-79" value="P4" style="shape=partialRectangle;html=1;whiteSpace=wrap;connectable=0;overflow=hidden;fillColor=none;top=0;left=0;bottom=0;right=0;" vertex="1" parent="ayNgYDYhqUhjOZifAOX6-66">
          <mxGeometry x="403" width="34" height="40" as="geometry" />
        </mxCell>
        <mxCell id="ayNgYDYhqUhjOZifAOX6-80" value="P1" style="shape=partialRectangle;html=1;whiteSpace=wrap;connectable=0;overflow=hidden;fillColor=none;top=0;left=0;bottom=0;right=0;" vertex="1" parent="ayNgYDYhqUhjOZifAOX6-66">
          <mxGeometry x="437" width="33" height="40" as="geometry" />
        </mxCell>
        <mxCell id="ayNgYDYhqUhjOZifAOX6-81" value="" style="shape=table;html=1;whiteSpace=wrap;startSize=0;container=1;collapsible=0;childLayout=tableLayout;" vertex="1" parent="1">
          <mxGeometry x="190" y="600" width="470" height="90" as="geometry" />
        </mxCell>
        <mxCell id="ayNgYDYhqUhjOZifAOX6-82" value="" style="shape=partialRectangle;html=1;whiteSpace=wrap;collapsible=0;dropTarget=0;pointerEvents=0;fillColor=none;top=0;left=0;bottom=0;right=0;points=[[0,0.5],[1,0.5]];portConstraint=eastwest;" vertex="1" parent="ayNgYDYhqUhjOZifAOX6-81">
          <mxGeometry width="470" height="90" as="geometry" />
        </mxCell>
        <mxCell id="ayNgYDYhqUhjOZifAOX6-83" value="P2&lt;br&gt;P3&lt;br&gt;P4" style="shape=partialRectangle;html=1;whiteSpace=wrap;connectable=0;overflow=hidden;fillColor=none;top=0;left=0;bottom=0;right=0;" vertex="1" parent="ayNgYDYhqUhjOZifAOX6-82">
          <mxGeometry width="34" height="90" as="geometry" />
        </mxCell>
        <mxCell id="ayNgYDYhqUhjOZifAOX6-84" value="" style="shape=partialRectangle;html=1;whiteSpace=wrap;connectable=0;overflow=hidden;fillColor=none;top=0;left=0;bottom=0;right=0;" vertex="1" parent="ayNgYDYhqUhjOZifAOX6-82">
          <mxGeometry x="34" width="33" height="90" as="geometry" />
        </mxCell>
        <mxCell id="ayNgYDYhqUhjOZifAOX6-85" value="P3&lt;br&gt;P4&lt;br&gt;P1" style="shape=partialRectangle;html=1;whiteSpace=wrap;connectable=0;overflow=hidden;fillColor=none;top=0;left=0;bottom=0;right=0;" vertex="1" parent="ayNgYDYhqUhjOZifAOX6-82">
          <mxGeometry x="67" width="34" height="90" as="geometry" />
        </mxCell>
        <mxCell id="ayNgYDYhqUhjOZifAOX6-86" value="" style="shape=partialRectangle;html=1;whiteSpace=wrap;connectable=0;overflow=hidden;fillColor=none;top=0;left=0;bottom=0;right=0;" vertex="1" parent="ayNgYDYhqUhjOZifAOX6-82">
          <mxGeometry x="101" width="33" height="90" as="geometry" />
        </mxCell>
        <mxCell id="ayNgYDYhqUhjOZifAOX6-87" value="P4&lt;br&gt;P1&lt;br&gt;P2" style="shape=partialRectangle;html=1;whiteSpace=wrap;connectable=0;overflow=hidden;fillColor=none;top=0;left=0;bottom=0;right=0;" vertex="1" parent="ayNgYDYhqUhjOZifAOX6-82">
          <mxGeometry x="134" width="34" height="90" as="geometry" />
        </mxCell>
        <mxCell id="ayNgYDYhqUhjOZifAOX6-88" value="" style="shape=partialRectangle;html=1;whiteSpace=wrap;connectable=0;overflow=hidden;fillColor=none;top=0;left=0;bottom=0;right=0;" vertex="1" parent="ayNgYDYhqUhjOZifAOX6-82">
          <mxGeometry x="168" width="33" height="90" as="geometry" />
        </mxCell>
        <mxCell id="ayNgYDYhqUhjOZifAOX6-89" value="P1&lt;br&gt;P2&lt;br&gt;" style="shape=partialRectangle;html=1;whiteSpace=wrap;connectable=0;overflow=hidden;fillColor=none;top=0;left=0;bottom=0;right=0;" vertex="1" parent="ayNgYDYhqUhjOZifAOX6-82">
          <mxGeometry x="201" width="34" height="90" as="geometry" />
        </mxCell>
        <mxCell id="ayNgYDYhqUhjOZifAOX6-90" value="" style="shape=partialRectangle;html=1;whiteSpace=wrap;connectable=0;overflow=hidden;fillColor=none;top=0;left=0;bottom=0;right=0;" vertex="1" parent="ayNgYDYhqUhjOZifAOX6-82">
          <mxGeometry x="235" width="34" height="90" as="geometry" />
        </mxCell>
        <mxCell id="ayNgYDYhqUhjOZifAOX6-91" value="P2&lt;br&gt;P4" style="shape=partialRectangle;html=1;whiteSpace=wrap;connectable=0;overflow=hidden;fillColor=none;top=0;left=0;bottom=0;right=0;" vertex="1" parent="ayNgYDYhqUhjOZifAOX6-82">
          <mxGeometry x="269" width="33" height="90" as="geometry" />
        </mxCell>
        <mxCell id="ayNgYDYhqUhjOZifAOX6-92" value="" style="shape=partialRectangle;html=1;whiteSpace=wrap;connectable=0;overflow=hidden;fillColor=none;top=0;left=0;bottom=0;right=0;" vertex="1" parent="ayNgYDYhqUhjOZifAOX6-82">
          <mxGeometry x="302" width="34" height="90" as="geometry" />
        </mxCell>
        <mxCell id="ayNgYDYhqUhjOZifAOX6-93" value="P4&lt;br&gt;P1" style="shape=partialRectangle;html=1;whiteSpace=wrap;connectable=0;overflow=hidden;fillColor=none;top=0;left=0;bottom=0;right=0;" vertex="1" parent="ayNgYDYhqUhjOZifAOX6-82">
          <mxGeometry x="336" width="33" height="90" as="geometry" />
        </mxCell>
        <mxCell id="ayNgYDYhqUhjOZifAOX6-94" value="" style="shape=partialRectangle;html=1;whiteSpace=wrap;connectable=0;overflow=hidden;fillColor=none;top=0;left=0;bottom=0;right=0;" vertex="1" parent="ayNgYDYhqUhjOZifAOX6-82">
          <mxGeometry x="369" width="34" height="90" as="geometry" />
        </mxCell>
        <mxCell id="ayNgYDYhqUhjOZifAOX6-95" value="P1" style="shape=partialRectangle;html=1;whiteSpace=wrap;connectable=0;overflow=hidden;fillColor=none;top=0;left=0;bottom=0;right=0;" vertex="1" parent="ayNgYDYhqUhjOZifAOX6-82">
          <mxGeometry x="403" width="33" height="90" as="geometry" />
        </mxCell>
        <mxCell id="ayNgYDYhqUhjOZifAOX6-96" value="" style="shape=partialRectangle;html=1;whiteSpace=wrap;connectable=0;overflow=hidden;fillColor=none;top=0;left=0;bottom=0;right=0;" vertex="1" parent="ayNgYDYhqUhjOZifAOX6-82">
          <mxGeometry x="436" width="34" height="90" as="geometry" />
        </mxCell>
        <mxCell id="ayNgYDYhqUhjOZifAOX6-97" value="FIFO" style="text;html=1;align=center;verticalAlign=middle;resizable=0;points=[];autosize=1;" vertex="1" parent="1">
          <mxGeometry x="110" y="600" width="40" height="20" as="geometry" />
        </mxCell>
        <mxCell id="ayNgYDYhqUhjOZifAOX6-98" value="Schedule" style="text;html=1;align=center;verticalAlign=middle;resizable=0;points=[];autosize=1;" vertex="1" parent="1">
          <mxGeometry x="105" y="540" width="70" height="20" as="geometry" />
        </mxCell>
        <mxCell id="ayNgYDYhqUhjOZifAOX6-100" style="rounded=0;orthogonalLoop=1;jettySize=auto;html=1;" edge="1" parent="1" source="ayNgYDYhqUhjOZifAOX6-99">
          <mxGeometry relative="1" as="geometry">
            <mxPoint x="640" y="260" as="targetPoint" />
          </mxGeometry>
        </mxCell>
        <mxCell id="ayNgYDYhqUhjOZifAOX6-99" value="" style="shape=curlyBracket;whiteSpace=wrap;html=1;rounded=1;direction=south;" vertex="1" parent="1">
          <mxGeometry x="523" y="450" width="67" height="20" as="geometry" />
        </mxCell>
        <mxCell id="ayNgYDYhqUhjOZifAOX6-101" value="&lt;font style=&quot;font-size: 16px&quot;&gt;Time Slice = 2&lt;/font&gt;" style="text;html=1;align=center;verticalAlign=middle;resizable=0;points=[];autosize=1;" vertex="1" parent="1">
          <mxGeometry x="580" y="230" width="120" height="20" as="geometry" />
        </mxCell>
      </root>
    </mxGraphModel>
  </diagram>
</mxfile>
